Coordinates
version=1
nRows=8
nColumns=63
inDegrees=yes

Units are S.I. units (second, meters, Newtons, ...)
If the header above contains a line with 'inDegrees', this indicates whether rotational values are in degrees (yes) or radians (no).

endheader
time	pelvis_tilt	pelvis_list	pelvis_rotation	pelvis_tx	pelvis_ty	pelvis_tz	hip_flexion_r	hip_adduction_r	hip_rotation_r	knee_angle_r	knee_angle_r_beta	ankle_angle_r	subtalar_angle_r	mtp_angle_r	hip_flexion_l	hip_adduction_l	hip_rotation_l	knee_angle_l	knee_angle_l_beta	ankle_angle_l	subtalar_angle_l	mtp_angle_l	L5_S1_Flex_Ext	L5_S1_Lat_Bending	L5_S1_axial_rotation	L4_L5_Flex_Ext	L4_L5_Lat_Bending	L4_L5_axial_rotation	L3_L4_Flex_Ext	L3_L4_Lat_Bending	L3_L4_axial_rotation	L2_L3_Flex_Ext	L2_L3_Lat_Bending	L2_L3_axial_rotation	L1_L2_Flex_Ext	L1_L2_Lat_Bending	L1_L2_axial_rotation	L1_T12_Flex_Ext	L1_T12_Lat_Bending	L1_T12_axial_rotation	Abs_r3	Abs_r2	Abs_r1	Abs_t1	Abs_t2	neck_flexion	neck_bending	neck_rotation	arm_flex_r	arm_add_r	arm_rot_r	elbow_flex_r	pro_sup_r	wrist_flex_r	wrist_dev_r	arm_flex_l	arm_add_l	arm_rot_l	elbow_flex_l	pro_sup_l	wrist_flex_l	wrist_dev_l
      0.00000000	     10.87495944	     -4.68754279	     83.19800599	      0.42370488	      0.75934841	      0.70446110	      9.71389857	      7.66360604	      6.54588214	      5.07153106	      0.08851492	     26.51117129	    -13.19004841	      0.00000000	      5.68579982	     -6.49151284	    -10.67358882	      0.28201260	      0.00492205	     35.93734770	     16.06474200	      0.00000000	      0.15796255	      1.27375086	      1.01892275	      0.29335226	      1.69408864	      1.08260542	      0.25951668	      3.09699784	      1.08260542	      0.18053540	      3.09699784	      0.89155740	      0.14668403	      2.59743275	      0.82787473	      0.09025980	      1.97304008	      0.76419206	      1.12831073	     14.40892447	      5.66694263	      0.00000000	      0.00000000	     22.92938214	     -8.97998156	     42.52429890	      0.04253633	    -26.49566044	     33.29477743	     44.46400964	     86.54962042	    -12.69922708	     -9.32630119	      6.17473513	    -45.97361226	     59.94217825	     90.59726753	     88.91754518	     11.71982212	     32.48394275
      0.01666667	     10.32601115	     -4.52151107	     82.89846161	      0.42667406	      0.75859341	      0.70442095	      9.49114635	      7.34777409	      7.50133473	      5.99856708	      0.10469475	     24.26236296	    -15.51755997	      0.00000000	      5.30869417	     -6.03949840	    -10.17406956	      0.29295329	      0.00511300	     34.98585155	     15.62160558	      0.00000000	      0.13394605	      1.15626096	      1.07055495	      0.24875121	      1.53782708	      1.13746463	      0.22005997	      2.81133290	      1.13746463	      0.15308694	      2.81133290	      0.93673558	      0.12438230	      2.35784736	      0.86982590	      0.07653677	      1.79104823	      0.80291621	      0.95676324	     13.07985526	      5.95410546	      0.00000000	      0.00000000	     23.13769612	     -8.12311591	     41.51621887	      0.08338029	    -26.46293381	     34.54876411	     45.45021970	     87.49878365	    -14.15401565	    -10.25608044	      6.91982874	    -46.21941808	     56.98793248	     90.49405964	     88.97363963	      8.56998835	     32.57457878
      0.03333333	      9.88660598	     -4.41232398	     82.76514208	      0.42894543	      0.75824298	      0.70440252	      9.25086801	      7.03629428	      7.71168773	      6.39261870	      0.11157224	     22.54228695	    -16.51026897	      0.00000000	      5.09957418	     -5.67574132	     -9.50023155	      0.30039451	      0.00524287	     34.34938922	     15.12452018	      0.00000000	      0.13132606	      1.05898186	      1.10792900	      0.24388562	      1.40844588	      1.17717456	      0.21575558	      2.57480851	      1.17717456	      0.15009255	      2.57480851	      0.96943787	      0.12194938	      2.15947582	      0.90019231	      0.07503971	      1.64036291	      0.83094675	      0.93804889	     11.97941465	      6.16196869	      0.00000000	      0.00000000	     23.28327163	     -7.81048805	     39.71638029	     -0.31498841	    -26.40682987	     34.02208479	     47.32272394	     87.73426520	    -14.70267327	    -10.61521788	      7.49506652	    -45.89230927	     54.14308269	     90.08938719	     89.08658614	      5.43971840	     32.65093321
      0.05000000	      9.51947633	     -4.28768330	     82.73732856	      0.43072311	      0.75819703	      0.70447785	      8.93673864	      6.71874033	      7.65146525	      6.36041424	      0.11101017	     21.46249674	    -16.78234978	      0.00000000	      4.95482524	     -5.36572698	     -9.09647016	      0.30150392	      0.00526224	     34.07029133	     15.04557648	      0.00000000	      0.12973706	      0.97349564	      1.13667713	      0.24093470	      1.29474920	      1.20771945	      0.21314502	      2.36695729	      1.20771945	      0.14827649	      2.36695729	      0.99459248	      0.12047384	      1.98515230	      0.92355016	      0.07413176	      1.50794474	      0.85250784	      0.92669888	     11.01237735	      6.32185717	      0.00000000	      0.00000000	     23.38483486	     -7.74885968	     37.43007226	     -0.97388329	    -26.30898626	     32.39363161	     49.94308573	     87.36302902	    -15.09217404	    -10.55050506	      7.91805575	    -45.07414071	     51.09861722	     89.50295813	     89.21988501	      3.56144533	     32.64420677
      0.06666667	      9.20017421	     -4.25533323	     82.77605440	      0.43201411	      0.75819562	      0.70419753	      8.66768192	      6.42733803	      7.91377714	      6.04725798	      0.10554456	     20.78638561	    -17.22961080	      0.00000000	      4.94045417	     -5.08720643	     -8.70563666	      0.29836691	      0.00520748	     33.94120623	     14.88817212	      0.00000000	      0.16049549	      0.89758334	      1.14079933	      0.29805618	      1.19378584	      1.21209928	      0.26367804	      2.18238412	      1.21209928	      0.18343030	      2.18238412	      0.99819941	      0.14903611	      1.83035194	      0.92689945	      0.09170712	      1.39035659	      0.85559950	      1.14640325	     10.15364222	      6.34478362	      0.00000000	      0.00000000	     23.48801818	     -8.31595291	     33.93144969	     -1.77178069	    -26.31982000	     30.23569160	     53.37347948	     86.90529899	    -14.36459387	     -9.09046496	      8.01568651	    -43.87850698	     48.07989138	     88.95101384	     89.33088489	      1.36825761	     32.47490410
      0.08333333	      8.91117997	     -4.17849238	     82.92736295	      0.43296794	      0.75828625	      0.70406276	      8.31135295	      6.11483976	      8.04062589	      5.46710210	      0.09541893	     20.65492980	    -17.28645698	      0.00000000	      4.92884539	     -4.81837460	     -8.28982615	      0.29449206	      0.00513986	     34.00771024	     14.72881704	      0.00000000	      0.18199170	      0.82262638	      1.13737901	      0.33797679	      1.09409309	      1.20846519	      0.29899416	      2.00013378	      1.20846519	      0.20799831	      2.00013378	      0.99520663	      0.16899749	      1.67749972	      0.92412044	      0.10399006	      1.27424826	      0.85303425	      1.29994851	      9.30571414	      6.32576081	      0.00000000	      0.00000000	     23.52313180	     -8.91456540	     30.03526216	     -2.54557034	    -26.25997117	     27.91086012	     57.22854066	     86.00804699	    -13.96460769	     -7.15545527	      8.23724504	    -42.35543001	     45.12772020	     88.46853729	     89.41619758	      0.12515342	     32.13373665
      0.10000000	      8.65146224	     -4.15213811	     83.11488292	      0.43369131	      0.75824701	      0.70375771	      7.94856615	      5.81308995	      8.18058201	      4.70082089	      0.08204480	     20.73347046	    -17.19036513	      0.00000000	      4.95311648	     -4.57384737	     -7.94358436	      0.29248387	      0.00510481	     34.04722114	     14.54195867	      0.00000000	      0.20863913	      0.74991819	      1.11109823	      0.38746374	      0.99739119	      1.18054187	      0.34277323	      1.82335108	      1.18054187	      0.23845367	      1.82335108	      0.97221095	      0.19374230	      1.52923317	      0.90276731	      0.11921640	      1.16162327	      0.83332368	      1.49028847	      8.48322451	      6.17959505	      0.00000000	      0.00000000	     23.61202712	     -9.55849073	     25.92839758	     -3.19576214	    -26.22098904	     25.91283463	     61.44070855	     85.01366224	    -14.06516189	     -4.77038102	      8.21263000	    -40.43203114	     41.74217163	     88.25723068	     89.48628680	     -0.90798001	     31.25820029
      0.11666667	      8.46907483	     -4.07867603	     83.42861617	      0.43393703	      0.75815463	      0.70338525	      7.53466278	      5.55136177	      8.21242225	      3.95052034	      0.06894959	     20.89508913	    -17.11698566	      0.00000000	      4.92446404	     -4.37406073	     -7.57597316	      0.29477801	      0.00514485	     33.96913862	     14.27238624	      0.00000000	      0.22337541	      0.68311321	      1.05868507	      0.41483047	      0.90854057	      1.12485289	      0.36698346	      1.66092146	      1.12485289	      0.25529576	      1.66092146	      0.92634943	      0.20742641	      1.39300446	      0.86018162	      0.12763671	      1.05814236	      0.79401380	      1.59554821	      7.72751324	      5.88808874	      0.00000000	      0.00000000	     23.65203962	    -10.23192584	     21.31061139	     -3.78690634	    -26.19001833	     23.85938199	     66.11305131	     84.76728365	    -14.09967261	     -1.65907069	      8.29269854	    -38.16144134	     38.61839230	     88.09910062	     89.52449794	     -1.57311335	     29.80845785
